# xmcd
#
# Track frame offsets:
#	150
#	11651
#	23530
#	35857
#	47610
#	63019
#	73126
#	84975
#	99336
#	109735
#	124288
#	136370
#	148842
#	162104
#	172860
#	181389
#
# Disc length: 2546 seconds
#
# Revision: 1
# Processed by: cddbd v1.5.2PL0 Copyright (c) Steve Scherf et al.
# Submitted via: audiograbber 1.83.01
#
DISCID=d209f010
DTITLE=Various Artist - Things Go Better With Love
DYEAR=2004
DGENRE=Country
TTITLE0=Hank Williams Snr - Baby, We're Really In Love
TTITLE1=Porter Wagoner - I Know I'm Gonna Be Loved Tonight
TTITLE2=Townes Van Zandt - Fraulein
TTITLE3=Billy Jo Spears - Ease The Want In Me
TTITLE4=Kenny Rogers - Good Lady Of Toronto
TTITLE5=Jeannie C Riley - Things Go Better With Love
TTITLE6=Carl Perkins - Forever Yours
TTITLE7=Patti Page - With My eyes Wide Open
TTITLE8=Willie Nelson - Touch Me
TTITLE9=Anne Murray - A Song For David
TTITLE10=Hank Locklin - It's A Little More Like Heaven
TTITLE11=Tom Jones - Behind Closed Doors
TTITLE12=Red Foley - Candy Kisses
TTITLE13=Patsy Cline - I Can see An Angel Walking
TTITLE14=Johnny Cash - I Forgot To Remember To Forget
TTITLE15=Gene Autry - It Happened In Monterey
EXTD=
EXTT0=Hank Williams Snr
EXTT1=Porter Wagoner
EXTT2=Townes Van Zandt
EXTT3=Billie Jo Spears
EXTT4=Kenny Rogers and The First Edition
EXTT5=Jeannie C Riley
EXTT6=Carl Perkins
EXTT7=Patti Page
EXTT8=Willie Nelson
EXTT9=Anne Murray
EXTT10=Hank Locklin
EXTT11=Tom Jones
EXTT12=Red Foley
EXTT13=Patsy Cline
EXTT14=Johnny Cash
EXTT15=Gene Autry
PLAYORDER=
